<svg width="259" height="113" viewBox="0 0 259 113" fill="none" xmlns="http://www.w3.org/2000/svg">
<path d="M257.796 13.0624C248.174 14.2817 238.372 15.5847 229.523 19.7445C220.494 23.988 212.647 30.6582 204.257 35.9895C194.769 39.5636 185.051 42.026 175.128 43.4963C184.17 37.7706 192.922 31.0646 200.889 24.1076C208.289 17.6407 215.025 10.7673 219.238 1.80213C219.673 0.881706 218.671 0.116674 217.814 0.379654C206.551 3.87011 196.966 8.90258 189.735 18.334C186.403 22.6731 183.602 27.3709 180.596 31.9372C177.784 36.1927 174.584 40.0896 171.361 44.0103C165.567 44.7276 159.712 45.1579 153.797 45.2535C145.141 45.4089 136.486 45.122 127.842 44.9666C128.446 44.6558 129.037 44.3331 129.605 43.9625C129.544 44.0223 129.484 44.0821 129.424 44.1299C129.086 44.4407 129.375 45.0383 129.846 44.8471C149.994 36.6708 164.432 20.8084 173.8 1.63478C174.21 0.786077 173.184 -0.373424 172.291 0.116674C162.983 5.22087 155.004 12.142 147.894 19.9358C140.518 28.0403 134.88 38.7029 125.669 44.9188C118.245 44.7993 110.809 44.8112 103.385 45.3252C95.876 45.8392 88.3915 46.9868 81.0397 48.7201C99.6666 37.4598 113.272 21.0714 126.104 3.78643C126.792 2.86601 125.838 1.77823 124.812 2.10097C113.839 5.55557 104.918 12.7038 97.5299 21.3104C93.4858 26.0202 89.8884 31.1004 86.3996 36.2285C83.4058 40.6275 80.5568 46.8194 75.9695 50.023C65.9982 52.7843 56.3528 56.6453 47.323 61.618C59.3224 46.2337 70.8028 29.8214 74.5209 10.4087C74.6899 9.54807 73.4827 8.78304 72.7946 9.41658C64.6582 16.8756 57.3064 25.3029 52.2604 35.1527C47.5282 44.3929 45.9227 54.6849 42.5184 64.4032C36.5912 68.0132 30.9536 72.1133 25.7265 76.6915C23.9519 78.2455 22.2377 79.8831 20.5597 81.5447C25.9438 66.1962 24.7004 49.772 23.3363 33.7422C23.2638 32.8696 22.0204 32.7859 21.6945 33.527C17.8918 41.7989 15.5016 50.6207 14.8739 59.7054C14.2462 68.7065 16.1535 77.6358 15.8155 86.6011C13.9685 88.6929 12.1819 90.8207 10.5039 93.056C6.3753 98.5308 0.773965 105.751 0.00136625 112.732C-0.0227775 112.983 0.279019 113.09 0.435953 112.911C4.95083 107.843 7.47384 100.969 11.5058 95.4467C15.6586 89.7568 20.4149 84.5092 25.642 79.7755C26.318 79.154 27.0302 78.5682 27.7304 77.9705C43.4359 75.7472 56.5097 90.6653 72.2514 90.5577C72.9999 90.5577 73.1568 89.4938 72.6498 89.0994C65.6843 83.6007 58.1032 78.0781 49.4477 75.5798C43.4962 73.8585 37.5328 73.739 31.5813 74.7789C34.6596 72.3524 37.8466 70.0692 41.1543 67.9534C41.1302 68.0012 41.1181 68.061 41.094 68.1088C41.0457 68.2284 41.2147 68.3479 41.2992 68.2284C41.4561 68.0132 41.5768 67.7861 41.7338 67.5709C42.0597 67.3677 42.3736 67.1525 42.6995 66.9493C42.8202 67.045 43.0013 67.0569 43.122 66.9015C43.2186 66.77 43.3272 66.6505 43.4238 66.519C47.3713 64.1163 51.4516 61.9288 55.6285 59.9565C55.7975 60.0282 55.9785 59.9206 56.0148 59.7652C56.1113 59.7174 56.2079 59.6696 56.3045 59.6218C57.3547 59.8369 60.7349 60.4705 61.5678 60.8769C63.1734 61.6419 64.7065 62.5743 66.1793 63.5545C68.654 65.2041 71.008 67.0689 73.3741 68.8739C78.2028 72.5675 82.9953 76.309 88.0655 79.6919C96.8418 85.5491 106.451 90.1513 117.098 91.1554C118.173 91.251 118.74 89.9481 117.907 89.2548C101.32 75.3647 82.5366 62.0364 60.8918 57.6375C61.1091 57.5418 61.3264 57.4462 61.5437 57.3506C74.9555 51.8519 89.2003 48.6125 103.674 47.6323C103.988 47.6084 104.302 47.6084 104.604 47.5845C104.701 47.6084 104.797 47.6323 104.894 47.6562C109.409 51.577 112.728 56.4899 116.459 61.1638C120.153 65.7779 124.281 70.0094 128.772 73.8705C137.922 81.7479 148.606 87.7008 160.05 91.6335C160.967 91.9443 161.885 90.6892 160.967 90.0915C149.004 82.2619 138.767 72.9261 129.062 62.5145C123.146 56.1552 116.338 49.6644 107.839 47.4291C121.227 46.8314 134.639 47.5964 148.038 47.6323C159.881 53.4656 170.263 61.3909 181.296 68.575C186.584 72.0177 192.089 75.2093 198.004 77.5044C202.386 79.2018 208.977 82.0826 213.408 79.4767C214.096 79.0703 213.746 78.1738 213.202 77.863C194.262 66.8417 175.236 56.3465 155.161 47.5606C166.412 47.2737 177.47 45.9827 188.286 43.4127C193.223 45.6719 198.62 47.2737 203.714 49.0189C208.977 50.8119 214.289 52.4855 219.685 53.8004C230.393 56.3943 241.656 57.5538 252.424 54.673C253.679 54.3383 253.691 52.7843 252.424 52.4496C233.024 47.3454 213.202 43.9028 193.199 42.1575C197.931 40.8546 202.627 39.3126 207.263 37.4837C207.686 37.3163 207.891 37.0055 207.963 36.6708C208.072 36.6111 208.18 36.5513 208.289 36.4915C217.174 37.9379 227.182 35.2005 235.185 31.6503C244.143 27.6698 252.025 21.7766 258.749 14.7359C259.413 14.0307 258.641 12.9549 257.796 13.0624ZM145.624 26.0441C152.807 17.545 160.895 9.9545 170.299 3.98964C170.202 4.19286 170.106 4.39607 170.009 4.59928C169.937 4.56342 169.84 4.56342 169.768 4.63514C159.12 15.5846 148.316 26.4385 137.162 36.9099C140.192 33.2879 142.872 29.2954 145.624 26.0441ZM132.2 42.0141C132.9 41.4284 133.576 40.7829 134.24 40.1254C135.206 39.3126 136.148 38.5714 136.667 38.0694C140.337 34.4714 143.982 30.8614 147.64 27.2514C155.016 19.9836 162.344 12.656 169.659 5.32845C162.597 20.402 150.115 32.3317 135.689 40.6992C134.687 41.2849 133.673 41.8467 132.659 42.4086C132.248 42.6476 131.826 42.8747 131.403 43.1019C131.391 43.1019 131.391 43.1019 131.379 43.1138C131.585 42.7552 131.85 42.3966 132.2 42.0141ZM21.8997 37.3402C23.1069 52.5452 23.7588 68.1686 18.93 82.7759C17.9522 67.7861 18.5196 52.7126 21.9238 38.0335C21.9601 37.8781 21.7911 37.8184 21.6824 37.8781C21.7669 37.6988 21.8273 37.5076 21.8997 37.3402ZM16.4553 61.2833C16.8899 53.3581 18.6403 45.636 21.5375 38.2726C18.0488 53.4298 17.9764 68.575 18.1091 84.0071C17.6866 84.4494 17.2762 84.9156 16.8657 85.3698C17.9281 77.4207 16.0207 69.3042 16.4553 61.2833ZM38.0398 75.3049C41.951 75.4483 45.8503 76.0341 49.5925 77.1697C56.063 79.142 61.8817 82.9074 67.3019 86.9955C61.4833 83.8278 55.556 80.8275 49.2545 78.6997C46.1158 77.6358 42.8927 76.7871 39.6212 76.2492C37.8466 75.9504 35.6978 75.5559 33.5973 75.4005C35.0701 75.3049 36.5549 75.2571 38.0398 75.3049ZM69.4387 88.6451C69.4869 88.681 69.5352 88.7288 69.5835 88.7647C55.4595 87.2466 42.9772 74.7311 28.6841 77.1338C29.0583 76.8111 29.4325 76.4883 29.8068 76.1775C44.124 75.4244 57.1374 81.8794 69.4387 88.6451ZM52.6346 39.1094C56.8598 29.7138 63.3182 21.5495 70.6579 14.3415C61.4109 27.4068 53.709 41.273 47.1902 55.7846C48.9648 50.2023 50.2686 44.3929 52.6346 39.1094ZM47.4437 56.215C49.5684 51.314 51.8983 46.5086 54.373 41.775C59.419 32.1284 65.1894 22.8764 71.5029 13.9948C67.0122 32.1524 56.3528 47.4649 45.476 62.5982C45.4519 62.6341 45.4277 62.6819 45.3915 62.7177C45.1139 62.8731 44.8362 63.0285 44.5586 63.1959C45.4881 60.841 46.4418 58.522 47.4437 56.215ZM68.0021 60.1238C73.3862 61.8212 78.565 64.1044 83.5386 66.7581C94.536 72.6392 104.266 80.4928 113.742 88.5256C101.188 86.2903 90.4557 79.154 80.3758 71.5754C76.042 68.324 71.7565 64.7857 67.0967 61.9647C74.0742 65.3236 80.7741 69.2085 87.3533 73.3206C91.9285 76.1775 96.4192 79.1659 100.91 82.1663C104.302 84.4375 107.851 87.7366 112.125 87.9638C112.33 87.9757 112.463 87.7247 112.282 87.5932C97.385 76.5481 82.0175 65.3714 64.1512 59.825C62.7629 59.1675 61.266 58.4742 59.8778 58.0678C59.9381 58.0439 59.9985 58.008 60.0709 57.9841C62.7629 58.4264 65.5153 59.3349 68.0021 60.1238ZM66.6863 61.0323C75.9333 64.2478 84.5768 68.9217 92.8098 74.2769C97.8075 77.5283 102.648 80.9948 107.441 84.5211C108.153 85.0471 110.592 86.2663 110.881 87.0553C111.195 87.9399 106.801 85.573 106.282 85.2383C103.481 83.4333 100.753 81.5088 97.9886 79.6441C87.9207 72.8544 77.7199 66.2202 66.6863 61.0323ZM132.092 68.3718C138.816 75.5201 146.228 81.9511 154.207 87.641C153.398 87.3183 152.577 87.0075 151.781 86.6608C142.98 81.7957 135.52 74.6235 128.349 67.6904C122.651 62.1798 117.267 54.8403 110.664 49.772C119.151 53.9079 125.524 61.3909 132.092 68.3718ZM116.374 56.4899C120.527 60.8888 124.728 65.228 129.11 69.4118C134.615 74.6594 140.349 80.1102 146.783 84.3777C140.795 81.4132 135.134 77.8152 129.919 73.5716C125.199 69.7345 120.925 65.3954 117.122 60.6737C113.779 56.5377 110.809 52.0671 106.922 48.3973C106.837 48.3136 106.741 48.2419 106.644 48.1582C106.922 48.2419 107.175 48.3615 107.441 48.4571C108.057 48.8516 108.66 49.246 109.24 49.6883C111.871 51.6607 114.129 54.0992 116.374 56.4899ZM198.209 43.2692C200.78 43.5561 203.352 43.8669 205.911 44.2375C210.788 44.9188 215.641 45.7317 220.458 46.7238C227.037 48.0626 233.555 49.5807 240.038 51.2662C233.495 50.4772 226.952 49.6166 220.445 48.481C215.424 47.6084 210.426 46.6401 205.44 45.5763C202.821 45.0144 200.201 44.4287 197.593 43.8071C196.785 43.6159 195.976 43.4127 195.167 43.2094C196.362 43.2214 197.521 43.1975 198.209 43.2692ZM243.648 52.1986C244.939 52.5572 246.219 52.9397 247.498 53.3102C238.07 54.7208 228.666 53.6808 219.323 51.3857C211.102 49.3656 203.098 46.0664 194.926 43.6876C210.921 47.4769 227.242 50.6087 243.648 52.1986ZM229.717 22.183C237.491 18.3579 246.11 16.7561 254.669 15.5727C246.557 19.7804 238.867 24.5499 230.175 27.598C223.427 29.9648 216.003 31.2439 209.75 34.7702C209.52 34.7822 209.303 34.8061 209.074 34.818C216.281 31.2797 222.51 25.7213 229.717 22.183ZM196.869 24.3466C190.857 29.4987 184.737 34.4116 178.556 39.2887C183.964 33.3597 189.517 27.5741 195.336 22.0396C198.68 18.8599 202.108 15.752 205.597 12.7158C207.239 11.2933 208.905 9.88278 210.571 8.49616C211.778 7.49205 213.721 5.28064 215.339 4.41998C210.728 12.2496 203.726 18.4535 196.869 24.3466ZM189.022 23.1393C192.209 18.5611 195.758 14.198 200.31 10.8749C205.042 7.42033 210.51 5.30454 215.991 3.32024C215.906 3.47564 215.81 3.61908 215.725 3.76253C213.504 4.14504 210.498 7.8148 208.965 9.09384C204.595 12.7755 200.334 16.5768 196.193 20.4976C190.459 25.9126 184.942 31.5547 179.703 37.4359C183.192 32.8337 186.004 27.4665 189.022 23.1393ZM83.0436 46.7955C82.8263 46.9509 80.3999 48.3973 80.424 48.4929C80.3758 48.2897 82.0658 46.6521 82.259 46.4369C83.9611 44.5124 85.6632 42.5879 87.3774 40.6633C90.9748 36.5991 94.5843 32.5349 98.1817 28.4706C104.99 20.7845 111.714 12.907 120.527 7.43229C109.517 21.8364 98.1576 36.4796 83.0436 46.7955ZM83.273 44.0342C87.1118 38.8225 90.673 33.4075 94.6085 28.2555C101.96 18.6567 110.724 9.84692 122.096 5.35236C121.879 5.63924 121.661 5.91418 121.444 6.20106C121.396 6.20106 121.336 6.18911 121.287 6.22497C113.211 11.1499 106.946 18.0471 100.717 25.028C93.5461 33.0728 86.3996 41.1415 79.1806 49.1504C79.0358 49.1863 78.8788 49.2221 78.734 49.258C80.4723 47.7996 81.9089 45.899 83.273 44.0342ZM167.064 53.7764C172.074 56.1552 177.023 58.6296 181.912 61.2355C191.739 66.4712 201.541 72.1133 210.728 78.4367C210.51 78.4846 210.305 78.5204 210.088 78.5443C200.153 72.9381 190.169 67.4155 180.198 61.9049C174.923 58.9882 169.647 56.0835 164.372 53.1907C162.754 52.3061 161.148 51.4216 159.531 50.5251C162.066 51.5889 164.625 52.6169 167.064 53.7764ZM209.388 78.6041C204.136 78.8432 196.929 75.0778 193.127 73.1891C187.369 70.3441 181.985 66.7939 176.685 63.1959C168.283 57.494 159.893 51.302 150.356 47.6203C151.093 47.6203 151.817 47.6203 152.553 47.6203C152.577 47.6203 152.602 47.6203 152.626 47.6203C171.603 57.8526 190.495 68.2283 209.388 78.6041ZM233.749 29.9888C226.566 33.0847 219.588 34.053 212.152 34.6028C218.816 31.6981 225.878 30.0246 232.723 27.3111C240.412 24.263 247.981 20.2107 254.898 15.6564C248.754 21.6093 241.668 26.582 233.749 29.9888Z" fill="#B3D8CC"/>
</svg>
