<svg width="126" height="110" viewBox="0 0 126 110" fill="none" xmlns="http://www.w3.org/2000/svg">
<path d="M0 71.9C0 40.5 16.96 14.44 45.22 0L53.7 15.39C32.97 27.32 21.04 45.53 21.04 69.71L27 94.2L9.73 73.16C15.07 67.19 22.29 62.8 29.51 62.8C42.38 62.8 51.49 72.22 51.49 85.72C51.49 99.85 42.07 109.9 28.25 109.9C11.93 109.9 0 95.77 0 71.9ZM72.22 71.9C72.22 40.5 89.18 14.44 117.44 0L125.92 15.39C105.2 27.32 93.26 45.53 93.26 69.71L99.23 94.2L81.95 73.16C87.29 67.19 94.51 62.8 101.73 62.8C114.6 62.8 123.71 72.22 123.71 85.72C123.71 99.85 114.29 109.9 100.47 109.9C84.15 109.9 72.22 95.77 72.22 71.9Z" fill="#B3D8CC"/>
</svg>
