<svg width="910" height="482" viewBox="0 0 910 482" fill="none" xmlns="http://www.w3.org/2000/svg">
<path d="M329.24 239.12C334.04 239.12 336.44 244.133 336.44 254.16C336.44 255.227 336.387 256.347 336.28 257.52C337.56 257.947 339.427 258.16 341.88 258.16C344.333 258.16 346.52 257.147 348.44 255.12C350.36 253.093 351.32 251.227 351.32 249.52C351.32 249.093 351.587 248.827 352.12 248.72C352.653 248.507 353.133 248.507 353.56 248.72C354.093 248.933 354.36 249.253 354.36 249.68C354.36 252.773 353.027 255.707 350.36 258.48C347.8 261.253 344.333 262.64 339.96 262.64C338.787 262.64 337.453 262.533 335.96 262.32C335.107 269.573 333.4 276.773 330.84 283.92C328.28 290.96 324.867 297.093 320.6 302.32C316.44 307.44 312.12 310 307.64 310C297.08 310 291.8 302.693 291.8 288.08C291.8 279.013 293.72 266 297.56 249.04C301.507 231.973 306.733 216.133 313.24 201.52C319.747 186.907 325.933 179.6 331.8 179.6C336.28 179.6 338.52 182.373 338.52 187.92C338.52 189.84 338.253 192.08 337.72 194.64C335.693 204.773 331 215.227 323.64 226C318.093 234.107 313.027 239.12 308.44 241.04C303 264.827 300.28 281.573 300.28 291.28C300.28 300.88 302.84 305.68 307.96 305.68C313.507 305.68 318.52 300.933 323 291.44C327.587 281.947 330.68 271.813 332.28 261.04C328.867 259.333 326.467 256.667 325.08 253.04C324.227 250.907 323.8 249.093 323.8 247.6C323.8 246 324.013 244.613 324.44 243.44C325.293 240.56 326.893 239.12 329.24 239.12ZM335 188.24C335 185.04 334.04 183.387 332.12 183.28C328.813 183.28 325.133 188.347 321.08 198.48C317.027 208.613 313.187 221.2 309.56 236.24C315.427 232.4 321.133 224.72 326.68 213.2C332.227 201.68 335 193.36 335 188.24ZM371.495 214.16C373.948 214.16 375.175 215.813 375.175 219.12C375.175 222.427 373.575 225.093 370.375 227.12C368.775 228.187 367.388 228.72 366.215 228.72C364.508 228.72 363.495 228.187 363.175 227.12L363.015 226.64C363.975 226.64 364.668 225.627 365.095 223.6C365.522 221.467 366.162 219.387 367.015 217.36C367.975 215.227 369.468 214.16 371.495 214.16ZM361.255 306.16C364.028 306.16 367.922 302.48 372.935 295.12C377.948 287.76 382.268 280.4 385.895 273.04L391.335 262H395.655C395.015 263.28 394.162 265.04 393.095 267.28C392.135 269.413 390.162 273.307 387.175 278.96C384.188 284.507 381.308 289.413 378.535 293.68C375.868 297.947 372.828 301.84 369.415 305.36C366.108 308.773 363.228 310.48 360.775 310.48C352.882 310.48 348.935 305.36 348.935 295.12C348.935 287.44 351.122 274.96 355.495 257.68C355.922 255.867 356.242 254.48 356.455 253.52C356.775 252.56 357.095 251.333 357.415 249.84C357.735 248.24 358.055 246.8 358.375 245.52C358.908 243.28 359.868 242.16 361.255 242.16C363.175 242.16 364.562 243.547 365.415 246.32C365.842 247.6 366.055 249.147 366.055 250.96C366.055 252.773 365.842 254.693 365.415 256.72C364.988 258.64 364.295 261.52 363.335 265.36C362.375 269.2 361.628 272.347 361.095 274.8C360.562 277.253 359.975 280.24 359.335 283.76C358.162 289.627 357.575 294.853 357.575 299.44C357.575 303.92 358.802 306.16 361.255 306.16ZM388.694 310C385.707 310 384.214 307.707 384.214 303.12C384.214 300.667 387.2 282.8 393.174 249.52C393.494 247.28 394.454 246.16 396.054 246.16C397.974 246.16 399.414 247.547 400.374 250.32C400.907 251.813 401.174 253.467 401.174 255.28C401.174 256.987 400.96 258.853 400.534 260.88L397.974 273.68H398.934C408.534 252.133 417.707 241.36 426.454 241.36C429.867 241.36 432.48 242.427 434.294 244.56C436.107 246.587 437.014 249.413 437.014 253.04C437.014 256.667 435.574 264.507 432.694 276.56C429.814 288.613 428.374 296.987 428.374 301.68C428.374 308.613 429.654 312.08 432.214 312.08C432.214 312.827 431.734 313.573 430.774 314.32C429.814 315.067 428.694 315.44 427.414 315.44C421.227 315.44 418.134 310.587 418.134 300.88C418.134 294.907 419.734 285.893 422.934 273.84C426.24 261.68 427.894 253.947 427.894 250.64C427.894 247.227 426.56 245.52 423.894 245.52C420.054 245.52 415.414 250.533 409.974 260.56C404.64 270.587 400.32 280.187 397.014 289.36C393.814 298.427 391.947 304.133 391.414 306.48C390.987 308.827 390.08 310 388.694 310ZM460.133 286.64C460.133 299.547 464.719 306 473.893 306C477.306 306 480.879 304.507 484.613 301.52C488.453 298.427 491.919 294.747 495.013 290.48C501.839 280.667 506.639 272.667 509.413 266.48L511.493 262H515.813C513.999 266.267 511.333 271.547 507.813 277.84C504.293 284.027 500.933 289.253 497.733 293.52C494.533 297.787 490.746 301.68 486.373 305.2C481.999 308.613 477.839 310.32 473.893 310.32C458.106 310.32 450.213 301.467 450.213 283.76C450.213 275.547 452.613 267.333 457.413 259.12C464.026 247.707 472.186 242 481.893 242C488.719 242 492.133 245.733 492.133 253.2C492.133 258.747 489.999 264.507 485.733 270.48C479.759 278.587 472.773 282.693 464.773 282.8C463.599 282.8 462.853 282.267 462.533 281.2L462.373 280.56C467.919 280.56 473.199 276.933 478.213 269.68C483.333 262.32 485.893 256.187 485.893 251.28C485.893 247.973 484.613 246.32 482.053 246.32C476.399 246.32 471.119 251.28 466.213 261.2C462.159 269.627 460.133 278.107 460.133 286.64Z" fill="#B3D8CC"/>
<path d="M281.68 224C281.68 215.573 278.96 211.093 273.52 210.56C274.16 208.747 275.44 207.84 277.36 207.84C282.267 207.84 285.52 210.72 287.12 216.48C287.653 218.613 287.92 220.747 287.92 222.88C287.92 228 286.427 233.28 283.44 238.72C277.573 249.387 268.133 255.947 255.12 258.4C251.92 259.04 248.667 259.36 245.36 259.36C242.16 259.36 239.973 259.253 238.8 259.04C237.84 269.813 233.947 279.2 227.12 287.2C236.827 297.44 246.8 302.56 257.04 302.56C263.227 302.56 267.867 301.333 270.96 298.88C274.053 296.427 275.6 293.653 275.6 290.56C275.6 290.133 275.813 289.813 276.24 289.6C276.773 289.387 277.253 289.387 277.68 289.6C278.107 289.813 278.32 290.24 278.32 290.88C278.32 294.4 276.453 297.867 272.72 301.28C269.093 304.693 263.813 306.4 256.88 306.4C245.787 306.4 234.64 301.333 223.44 291.2C215.333 298.347 205.68 301.92 194.48 301.92C185.84 301.92 179.333 299.947 174.96 296C170.587 291.947 168.4 286.613 168.4 280C168.4 273.28 170.64 267.147 175.12 261.6C179.707 255.947 185.947 250.293 193.84 244.64C191.707 237.813 190.64 231.84 190.64 226.72C190.64 221.6 191.28 217.067 192.56 213.12C193.84 209.173 196.4 206.027 200.24 203.68C204.08 201.227 208.72 200 214.16 200C219.6 200 223.6 201.28 226.16 203.84C228.72 206.293 230 209.6 230 213.76C230 216.64 229.52 218.933 228.56 220.64C227.6 222.347 226.8 223.68 226.16 224.64C225.627 225.6 224.667 226.72 223.28 228C222 229.28 220.987 230.293 220.24 231.04C219.493 231.68 218.213 232.693 216.4 234.08C214.587 235.467 213.307 236.427 212.56 236.96C211.813 237.493 210.32 238.507 208.08 240C205.947 241.493 204.56 242.507 203.92 243.04C208.08 259.253 215.013 273.067 224.72 284.48C230.8 277.227 234.373 268.48 235.44 258.24C228.08 256.107 224.4 252.32 224.4 246.88C224.4 244.64 225.467 242.933 227.6 241.76C228.667 241.12 230.107 240.8 231.92 240.8C233.84 240.8 235.493 242.133 236.88 244.8C238.267 247.467 238.96 250.933 238.96 255.2C240.667 255.52 242.64 255.68 244.88 255.68C259.387 255.68 269.947 250.453 276.56 240C279.973 234.667 281.68 229.333 281.68 224ZM194.96 298.08C205.093 298.08 213.68 294.933 220.72 288.64C209.627 277.653 201.2 264.533 195.44 249.28C183.173 259.2 177.04 269.92 177.04 281.44C177.04 286.347 178.427 290.347 181.2 293.44C184.08 296.533 188.667 298.08 194.96 298.08ZM216.72 203.84C206.587 203.84 201.52 211.093 201.52 225.6C201.52 229.547 201.947 233.813 202.8 238.4C210.16 233.28 215.707 228.853 219.44 225.12C223.173 221.28 225.04 217.067 225.04 212.48C225.04 206.72 222.267 203.84 216.72 203.84ZM231.28 244.48C229.36 244.48 228.4 245.6 228.4 247.84C228.4 250.293 230.8 252.48 235.6 254.4C235.387 247.787 233.947 244.48 231.28 244.48Z" fill="#B3D8CC"/>
<path d="M273.24 112.12C278.04 112.12 280.44 117.133 280.44 127.16C280.44 128.227 280.387 129.347 280.28 130.52C281.56 130.947 283.427 131.16 285.88 131.16C288.333 131.16 290.52 130.147 292.44 128.12C294.36 126.093 295.32 124.227 295.32 122.52C295.32 122.093 295.587 121.827 296.12 121.72C296.653 121.507 297.133 121.507 297.56 121.72C298.093 121.933 298.36 122.253 298.36 122.68C298.36 125.773 297.027 128.707 294.36 131.48C291.8 134.253 288.333 135.64 283.96 135.64C282.787 135.64 281.453 135.533 279.96 135.32C279.107 142.573 277.4 149.773 274.84 156.92C272.28 163.96 268.867 170.093 264.6 175.32C260.44 180.44 256.12 183 251.64 183C241.08 183 235.8 175.693 235.8 161.08C235.8 152.013 237.72 139 241.56 122.04C245.507 104.973 250.733 89.1333 257.24 74.52C263.747 59.9067 269.933 52.6 275.8 52.6C280.28 52.6 282.52 55.3733 282.52 60.92C282.52 62.84 282.253 65.08 281.72 67.64C279.693 77.7733 275 88.2267 267.64 99C262.093 107.107 257.027 112.12 252.44 114.04C247 137.827 244.28 154.573 244.28 164.28C244.28 173.88 246.84 178.68 251.96 178.68C257.507 178.68 262.52 173.933 267 164.44C271.587 154.947 274.68 144.813 276.28 134.04C272.867 132.333 270.467 129.667 269.08 126.04C268.227 123.907 267.8 122.093 267.8 120.6C267.8 119 268.013 117.613 268.44 116.44C269.293 113.56 270.893 112.12 273.24 112.12ZM279 61.24C279 58.04 278.04 56.3867 276.12 56.28C272.813 56.28 269.133 61.3467 265.08 71.48C261.027 81.6133 257.187 94.2 253.56 109.24C259.427 105.4 265.133 97.72 270.68 86.2C276.227 74.68 279 66.36 279 61.24ZM296.135 183C293.148 183 291.655 180.707 291.655 176.12C291.655 173.667 294.642 155.8 300.615 122.52C301.042 120.28 302.002 119.16 303.495 119.16C305.415 119.16 306.855 120.547 307.815 123.32C308.348 124.813 308.615 126.467 308.615 128.28C308.615 129.987 308.402 131.853 307.975 133.88L305.415 147H306.215C315.388 125.667 323.815 115 331.495 115C335.762 115 338.588 117.08 339.975 121.24C340.508 122.84 340.775 124.707 340.775 126.84C340.775 128.867 340.188 131.107 339.015 133.56C336.988 137.72 333.948 139.8 329.895 139.8C329.042 139.8 328.348 139.587 327.815 139.16C327.388 138.733 327.122 138.147 327.015 137.4C327.868 137.4 328.988 135.853 330.375 132.76C331.762 129.56 332.562 126.627 332.775 123.96C332.988 121.293 332.082 119.747 330.055 119.32C326.322 119.32 321.895 124.173 316.775 133.88C311.655 143.587 307.548 152.867 304.455 161.72C301.362 170.573 299.548 176.333 299.015 179C298.482 181.667 297.522 183 296.135 183ZM396.921 179.16C399.695 179.16 403.588 175.48 408.601 168.12C413.615 160.76 417.935 153.4 421.561 146.04L427.001 135H431.321C430.681 136.28 429.828 138.04 428.761 140.28C427.801 142.413 425.828 146.307 422.841 151.96C419.855 157.507 416.975 162.413 414.201 166.68C411.535 170.947 408.495 174.84 405.081 178.36C401.775 181.773 398.628 183.48 395.641 183.48C392.655 183.48 390.201 182.573 388.281 180.76C385.935 178.413 384.761 174.307 384.761 168.44C384.761 162.573 385.775 154.84 387.801 145.24H386.681C374.415 170.413 364.228 183 356.121 183C348.975 183 345.401 178.36 345.401 169.08C345.401 162.36 348.281 148.973 354.041 128.92C355.321 124.333 356.281 120.92 356.921 118.68C357.561 116.333 358.575 115.16 359.961 115.16C361.881 115.16 363.268 116.547 364.121 119.32C364.548 120.493 364.761 121.987 364.761 123.8C364.761 125.507 364.495 127.427 363.961 129.56C363.428 131.587 362.308 135.533 360.601 141.4C356.015 157.187 353.721 167.8 353.721 173.24C353.721 176.76 354.788 178.52 356.921 178.52C359.588 178.52 362.735 176.12 366.361 171.32C370.201 166.307 373.348 161.453 375.801 156.76C378.255 152.067 380.228 148.227 381.721 145.24C383.215 142.253 384.708 139.16 386.201 135.96C387.695 132.653 388.868 129.933 389.721 127.8C390.681 125.667 391.588 123.64 392.441 121.72C393.295 119.693 393.721 118.627 393.721 118.52C394.681 116.28 395.748 115.16 396.921 115.16C398.841 115.16 400.228 116.547 401.081 119.32C401.508 120.6 401.721 122.147 401.721 123.96C401.721 125.773 401.508 127.693 401.081 129.72C400.655 131.64 399.961 134.52 399.001 138.36C398.041 142.2 397.295 145.347 396.761 147.8C396.228 150.253 395.588 153.24 394.841 156.76C393.775 162.627 393.241 167.853 393.241 172.44C393.241 176.92 394.468 179.16 396.921 179.16ZM424.686 183C421.699 183 420.206 180.707 420.206 176.12C420.206 173.667 423.193 155.8 429.166 122.52C429.486 120.28 430.446 119.16 432.046 119.16C433.966 119.16 435.406 120.547 436.366 123.32C436.899 124.813 437.166 126.467 437.166 128.28C437.166 129.987 436.953 131.853 436.526 133.88L433.966 146.68H434.926C444.526 125.133 453.699 114.36 462.446 114.36C465.859 114.36 468.473 115.427 470.286 117.56C472.099 119.587 473.006 122.413 473.006 126.04C473.006 129.667 471.566 137.507 468.686 149.56C465.806 161.613 464.366 169.987 464.366 174.68C464.366 181.613 465.646 185.08 468.206 185.08C468.206 185.827 467.726 186.573 466.766 187.32C465.806 188.067 464.686 188.44 463.406 188.44C457.219 188.44 454.126 183.587 454.126 173.88C454.126 167.907 455.726 158.893 458.926 146.84C462.233 134.68 463.886 126.947 463.886 123.64C463.886 120.227 462.553 118.52 459.886 118.52C456.046 118.52 451.406 123.533 445.966 133.56C440.633 143.587 436.313 153.187 433.006 162.36C429.806 171.427 427.939 177.133 427.406 179.48C426.979 181.827 426.073 183 424.686 183ZM496.605 183.16C488.178 183.16 483.965 176.813 483.965 164.12C483.965 156.76 485.885 148.707 489.725 139.96C495.058 128.12 501.832 120.387 510.045 116.76C512.925 115.587 515.805 115 518.685 115C521.672 115 524.018 115.853 525.725 117.56C527.432 119.267 528.285 121.187 528.285 123.32C528.285 124.28 527.752 124.76 526.685 124.76C525.725 124.653 525.245 124.12 525.245 123.16C525.245 122.2 524.712 121.347 523.645 120.6C522.685 119.747 521.245 119.32 519.325 119.32C512.605 119.32 506.525 125.347 501.085 137.4C495.965 148.6 493.405 159.213 493.405 169.24C493.405 175.427 494.738 178.52 497.405 178.52C500.178 178.52 503.485 176.227 507.325 171.64C511.272 166.947 514.898 161.507 518.205 155.32C525.352 142.307 529.565 133.933 530.845 130.2C532.125 126.467 533.512 124.6 535.005 124.6C537.672 124.6 539.005 126.84 539.005 131.32C539.005 132.707 538.845 134.307 538.525 136.12C535.005 153.187 533.085 163.053 532.765 165.72C532.552 168.387 532.445 170.307 532.445 171.48C532.445 176.6 533.672 179.16 536.125 179.16C538.898 179.16 542.792 175.48 547.805 168.12C552.818 160.76 557.138 153.4 560.765 146.04L566.205 135H570.525C569.885 136.28 569.032 138.04 567.965 140.28C567.005 142.413 565.032 146.307 562.045 151.96C559.058 157.507 556.178 162.413 553.405 166.68C550.738 170.947 547.698 174.84 544.285 178.36C540.978 181.773 538.098 183.48 535.645 183.48C527.752 183.48 523.805 177.72 523.805 166.2C523.805 162.36 524.232 157.88 525.085 152.76H523.965C513.085 173.027 503.965 183.16 496.605 183.16Z" fill="#B3D8CC"/>
<path d="M776.796 196.062C767.174 197.282 757.372 198.585 748.523 202.745C739.494 206.988 731.647 213.658 723.257 218.989C713.769 222.564 704.051 225.026 694.128 226.496C703.17 220.771 711.922 214.065 719.889 207.108C727.289 200.641 734.025 193.767 738.238 184.802C738.673 183.882 737.671 183.117 736.814 183.38C725.551 186.87 715.966 191.903 708.735 201.334C705.403 205.673 702.602 210.371 699.596 214.937C696.784 219.193 693.584 223.09 690.361 227.01C684.567 227.728 678.712 228.158 672.797 228.254C664.141 228.409 655.486 228.122 646.842 227.967C647.446 227.656 648.037 227.333 648.605 226.963C648.544 227.022 648.484 227.082 648.424 227.13C648.086 227.441 648.375 228.038 648.846 227.847C668.994 219.671 683.432 203.808 692.8 184.635C693.21 183.786 692.184 182.627 691.291 183.117C681.983 188.221 674.004 195.142 666.894 202.936C659.518 211.04 653.88 221.703 644.669 227.919C637.245 227.799 629.809 227.811 622.385 228.325C614.876 228.839 607.391 229.987 600.04 231.72C618.667 220.46 632.272 204.071 645.104 186.786C645.792 185.866 644.838 184.778 643.812 185.101C632.839 188.556 623.918 195.704 616.53 204.31C612.486 209.02 608.888 214.1 605.4 219.229C602.406 223.627 599.557 229.819 594.97 233.023C584.998 235.784 575.353 239.645 566.323 244.618C578.322 229.234 589.803 212.821 593.521 193.409C593.69 192.548 592.483 191.783 591.795 192.417C583.658 199.876 576.306 208.303 571.26 218.153C566.528 227.393 564.923 237.685 561.518 247.403C555.591 251.013 549.954 255.113 544.726 259.692C542.952 261.245 541.238 262.883 539.56 264.545C544.944 249.196 543.7 232.772 542.336 216.742C542.264 215.87 541.02 215.786 540.694 216.527C536.892 224.799 534.502 233.621 533.874 242.705C533.246 251.707 535.154 260.636 534.815 269.601C532.968 271.693 531.182 273.821 529.504 276.056C525.375 281.531 519.774 288.751 519.001 295.732C518.977 295.983 519.279 296.09 519.436 295.911C523.951 290.843 526.474 283.969 530.506 278.447C534.659 272.757 539.415 267.509 544.642 262.776C545.318 262.154 546.03 261.568 546.73 260.971C562.436 258.747 575.51 273.665 591.251 273.558C592 273.558 592.157 272.494 591.65 272.099C584.684 266.601 577.103 261.078 568.448 258.58C562.496 256.859 556.533 256.739 550.581 257.779C553.66 255.352 556.847 253.069 560.154 250.953C560.13 251.001 560.118 251.061 560.094 251.109C560.046 251.228 560.215 251.348 560.299 251.228C560.456 251.013 560.577 250.786 560.734 250.571C561.06 250.368 561.374 250.153 561.7 249.949C561.82 250.045 562.001 250.057 562.122 249.902C562.219 249.77 562.327 249.65 562.424 249.519C566.371 247.116 570.452 244.929 574.628 242.956C574.797 243.028 574.979 242.921 575.015 242.765C575.111 242.717 575.208 242.67 575.304 242.622C576.355 242.837 579.735 243.47 580.568 243.877C582.173 244.642 583.706 245.574 585.179 246.554C587.654 248.204 590.008 250.069 592.374 251.874C597.203 255.568 601.995 259.309 607.066 262.692C615.842 268.549 625.451 273.151 636.098 274.155C637.173 274.251 637.74 272.948 636.907 272.255C620.32 258.365 601.537 245.036 579.892 240.637C580.109 240.542 580.326 240.446 580.544 240.351C593.955 234.852 608.2 231.612 622.674 230.632C622.988 230.608 623.302 230.608 623.604 230.584C623.701 230.608 623.797 230.632 623.894 230.656C628.409 234.577 631.728 239.49 635.459 244.164C639.153 248.778 643.281 253.009 647.772 256.87C656.922 264.748 667.606 270.701 679.05 274.634C679.967 274.944 680.885 273.689 679.967 273.092C668.004 265.262 657.767 255.926 648.062 245.515C642.146 239.155 635.338 232.664 626.839 230.429C640.227 229.831 653.639 230.596 667.038 230.632C678.881 236.466 689.263 244.391 700.296 251.575C705.584 255.018 711.089 258.209 717.004 260.504C721.386 262.202 727.977 265.083 732.408 262.477C733.096 262.07 732.746 261.174 732.202 260.863C713.262 249.842 694.236 239.346 674.161 230.561C685.412 230.274 696.47 228.983 707.286 226.413C712.223 228.672 717.62 230.274 722.714 232.019C727.977 233.812 733.289 235.485 738.685 236.8C749.393 239.394 760.656 240.554 771.424 237.673C772.679 237.338 772.691 235.784 771.424 235.45C752.024 230.345 732.202 226.903 712.199 225.158C716.931 223.855 721.627 222.313 726.263 220.484C726.686 220.316 726.891 220.006 726.963 219.671C727.072 219.611 727.18 219.551 727.289 219.492C736.174 220.938 746.182 218.201 754.185 214.65C763.143 210.67 771.025 204.777 777.749 197.736C778.413 197.031 777.641 195.955 776.796 196.062ZM664.624 209.044C671.807 200.545 679.895 192.954 689.299 186.99C689.202 187.193 689.106 187.396 689.009 187.599C688.937 187.563 688.84 187.563 688.768 187.635C678.12 198.585 667.316 209.439 656.162 219.91C659.192 216.288 661.872 212.295 664.624 209.044ZM651.2 225.014C651.9 224.428 652.576 223.783 653.24 223.125C654.206 222.313 655.148 221.571 655.667 221.069C659.337 217.471 662.982 213.861 666.64 210.251C674.016 202.984 681.344 195.656 688.659 188.328C681.597 203.402 669.115 215.332 654.689 223.699C653.687 224.285 652.673 224.847 651.659 225.409C651.248 225.648 650.826 225.875 650.403 226.102C650.391 226.102 650.391 226.102 650.379 226.114C650.585 225.755 650.85 225.397 651.2 225.014ZM540.9 220.34C542.107 235.545 542.759 251.169 537.93 265.776C536.952 250.786 537.52 235.713 540.924 221.034C540.96 220.878 540.791 220.818 540.682 220.878C540.767 220.699 540.827 220.508 540.9 220.34ZM535.455 244.283C535.89 236.358 537.64 228.636 540.538 221.273C537.049 236.43 536.976 251.575 537.109 267.007C536.687 267.449 536.276 267.916 535.866 268.37C536.928 260.421 535.021 252.304 535.455 244.283ZM557.04 258.305C560.951 258.448 564.85 259.034 568.593 260.17C575.063 262.142 580.882 265.907 586.302 269.996C580.483 266.828 574.556 263.827 568.255 261.7C565.116 260.636 561.893 259.787 558.621 259.249C556.847 258.95 554.698 258.556 552.597 258.401C554.07 258.305 555.555 258.257 557.04 258.305ZM588.439 271.645C588.487 271.681 588.535 271.729 588.584 271.765C574.459 270.247 561.977 257.731 547.684 260.134C548.058 259.811 548.433 259.488 548.807 259.178C563.124 258.424 576.137 264.879 588.439 271.645ZM571.635 222.109C575.86 212.714 582.318 204.55 589.658 197.341C580.411 210.407 572.709 224.273 566.19 238.785C567.965 233.202 569.269 227.393 571.635 222.109ZM566.444 239.215C568.568 234.314 570.898 229.509 573.373 224.775C578.419 215.128 584.189 205.876 590.503 196.995C586.012 215.152 575.353 230.465 564.476 245.598C564.452 245.634 564.428 245.682 564.392 245.718C564.114 245.873 563.836 246.029 563.559 246.196C564.488 243.841 565.442 241.522 566.444 239.215ZM587.002 243.124C592.386 244.821 597.565 247.104 602.539 249.758C613.536 255.639 623.266 263.493 632.742 271.526C620.188 269.29 609.456 262.154 599.376 254.575C595.042 251.324 590.756 247.786 586.097 244.965C593.074 248.324 599.774 252.209 606.353 256.321C610.929 259.178 615.419 262.166 619.91 265.166C623.302 267.437 626.851 270.737 631.125 270.964C631.33 270.976 631.463 270.725 631.282 270.593C616.385 259.548 601.018 248.371 583.151 242.825C581.763 242.168 580.266 241.474 578.878 241.068C578.938 241.044 578.998 241.008 579.071 240.984C581.763 241.426 584.515 242.335 587.002 243.124ZM585.686 244.032C594.933 247.248 603.577 251.922 611.81 257.277C616.808 260.528 621.648 263.995 626.441 267.521C627.153 268.047 629.592 269.266 629.881 270.055C630.195 270.94 625.801 268.573 625.282 268.238C622.481 266.433 619.753 264.509 616.989 262.644C606.921 255.854 596.72 249.22 585.686 244.032ZM651.092 251.372C657.816 258.52 665.228 264.951 673.207 270.641C672.398 270.318 671.577 270.007 670.781 269.661C661.98 264.796 654.52 257.624 647.349 250.69C641.651 245.18 636.267 237.84 629.664 232.772C638.151 236.908 644.524 244.391 651.092 251.372ZM635.374 239.49C639.527 243.889 643.728 248.228 648.11 252.412C653.615 257.659 659.349 263.11 665.783 267.378C659.795 264.413 654.134 260.815 648.919 256.572C644.199 252.735 639.925 248.395 636.122 243.674C632.779 239.538 629.809 235.067 625.922 231.397C625.837 231.314 625.741 231.242 625.644 231.158C625.922 231.242 626.175 231.361 626.441 231.457C627.057 231.852 627.66 232.246 628.24 232.688C630.871 234.661 633.129 237.099 635.374 239.49ZM717.209 226.269C719.78 226.556 722.352 226.867 724.911 227.237C729.788 227.919 734.641 228.732 739.458 229.724C746.037 231.063 752.555 232.581 759.038 234.266C752.495 233.477 745.952 232.617 739.445 231.481C734.424 230.608 729.426 229.64 724.44 228.576C721.821 228.014 719.201 227.429 716.593 226.807C715.785 226.616 714.976 226.413 714.167 226.209C715.362 226.221 716.521 226.197 717.209 226.269ZM762.648 235.199C763.939 235.557 765.219 235.94 766.498 236.31C757.07 237.721 747.666 236.681 738.323 234.386C730.102 232.366 722.098 229.066 713.926 226.688C729.921 230.477 746.242 233.609 762.648 235.199ZM748.717 205.183C756.491 201.358 765.11 199.756 773.669 198.573C765.557 202.78 757.867 207.55 749.175 210.598C742.427 212.965 735.003 214.244 728.75 217.77C728.52 217.782 728.303 217.806 728.074 217.818C735.281 214.28 741.51 208.721 748.717 205.183ZM715.869 207.347C709.857 212.499 703.737 217.412 697.556 222.289C702.964 216.36 708.517 210.574 714.336 205.04C717.68 201.86 721.108 198.752 724.597 195.716C726.239 194.293 727.905 192.883 729.571 191.496C730.778 190.492 732.721 188.281 734.339 187.42C729.728 195.25 722.726 201.454 715.869 207.347ZM708.022 206.139C711.209 201.561 714.758 197.198 719.31 193.875C724.042 190.42 729.51 188.305 734.991 186.32C734.906 186.476 734.81 186.619 734.725 186.763C732.504 187.145 729.498 190.815 727.965 192.094C723.595 195.776 719.334 199.577 715.193 203.498C709.459 208.913 703.942 214.555 698.703 220.436C702.192 215.834 705.004 210.467 708.022 206.139ZM602.044 229.796C601.826 229.951 599.4 231.397 599.424 231.493C599.376 231.29 601.066 229.652 601.259 229.437C602.961 227.512 604.663 225.588 606.377 223.663C609.975 219.599 613.584 215.535 617.182 211.471C623.99 203.784 630.714 195.907 639.527 190.432C628.517 204.836 617.158 219.48 602.044 229.796ZM602.273 227.034C606.112 221.822 609.673 216.407 613.608 211.255C620.96 201.657 629.724 192.847 641.096 188.352C640.879 188.639 640.661 188.914 640.444 189.201C640.396 189.201 640.336 189.189 640.287 189.225C632.211 194.15 625.946 201.047 619.717 208.028C612.546 216.073 605.4 224.141 598.181 232.15C598.036 232.186 597.879 232.222 597.734 232.258C599.472 230.8 600.909 228.899 602.273 227.034ZM686.064 236.776C691.074 239.155 696.023 241.63 700.912 244.235C710.739 249.471 720.541 255.113 729.728 261.437C729.51 261.485 729.305 261.52 729.088 261.544C719.153 255.938 709.169 250.416 699.198 244.905C693.923 241.988 688.647 239.083 683.372 236.191C681.754 235.306 680.148 234.422 678.531 233.525C681.066 234.589 683.625 235.617 686.064 236.776ZM728.388 261.604C723.136 261.843 715.929 258.078 712.127 256.189C706.369 253.344 700.985 249.794 695.685 246.196C687.283 240.494 678.893 234.302 669.356 230.62C670.093 230.62 670.817 230.62 671.553 230.62C671.577 230.62 671.602 230.62 671.626 230.62C690.603 240.853 709.495 251.228 728.388 261.604ZM752.749 212.989C745.566 216.085 738.588 217.053 731.152 217.603C737.816 214.698 744.878 213.025 751.723 210.311C759.412 207.263 766.981 203.211 773.898 198.656C767.754 204.609 760.668 209.582 752.749 212.989Z" fill="#B3D8CC"/>
<path d="M38.0973 321.906C46.8642 323.018 55.7961 324.205 63.8589 327.997C72.0868 331.865 79.2367 337.945 86.8816 342.805C95.5275 346.062 104.382 348.307 113.424 349.647C105.185 344.428 97.2104 338.316 89.9505 331.974C83.2076 326.08 77.0697 319.814 73.2308 311.643C72.8348 310.804 73.7478 310.106 74.5288 310.346C84.7916 313.528 93.5255 318.115 100.114 326.712C103.15 330.667 105.702 334.949 108.441 339.111C111.004 342.99 113.919 346.542 116.856 350.116C122.136 350.769 127.471 351.162 132.861 351.249C140.748 351.39 148.635 351.129 156.511 350.987C155.961 350.704 155.422 350.41 154.905 350.072C154.96 350.127 155.015 350.181 155.07 350.225C155.378 350.508 155.114 351.053 154.685 350.878C136.326 343.426 123.17 328.967 114.634 311.49C114.26 310.717 115.195 309.66 116.009 310.106C124.49 314.759 131.761 321.067 138.24 328.172C144.961 335.559 150.098 345.278 158.49 350.944C165.255 350.835 172.031 350.846 178.796 351.314C185.638 351.783 192.458 352.829 199.157 354.409C182.184 344.145 169.787 329.207 158.094 313.451C157.468 312.612 158.336 311.621 159.271 311.915C169.27 315.064 177.399 321.58 184.131 329.425C187.816 333.717 191.094 338.348 194.273 343.022C197.001 347.032 199.597 352.676 203.777 355.596C212.863 358.113 221.652 361.632 229.879 366.165C218.946 352.142 208.485 337.182 205.097 319.488C204.943 318.703 206.043 318.006 206.67 318.583C214.084 325.382 220.783 333.064 225.38 342.042C229.692 350.464 231.155 359.846 234.257 368.704C239.658 371.994 244.795 375.732 249.558 379.905C251.175 381.321 252.737 382.814 254.266 384.328C249.36 370.338 250.493 355.367 251.736 340.756C251.802 339.961 252.935 339.884 253.232 340.56C256.697 348.1 258.875 356.141 259.447 364.422C260.019 372.626 258.281 380.765 258.589 388.937C260.272 390.844 261.9 392.783 263.429 394.821C267.191 399.811 272.295 406.392 272.999 412.755C273.021 412.984 272.746 413.082 272.603 412.919C268.489 408.299 266.19 402.034 262.516 397C258.732 391.814 254.398 387.03 249.635 382.716C249.019 382.149 248.37 381.615 247.732 381.07C233.421 379.044 221.509 392.642 207.165 392.544C206.483 392.544 206.34 391.574 206.802 391.214C213.149 386.202 220.057 381.169 227.943 378.891C233.366 377.322 238.8 377.213 244.223 378.161C241.418 375.949 238.514 373.868 235.5 371.94C235.522 371.983 235.533 372.038 235.555 372.081C235.599 372.19 235.445 372.299 235.368 372.19C235.225 371.994 235.115 371.787 234.972 371.591C234.675 371.406 234.389 371.21 234.092 371.025C233.982 371.112 233.817 371.123 233.707 370.981C233.619 370.861 233.52 370.752 233.432 370.632C229.835 368.442 226.117 366.448 222.312 364.651C222.158 364.716 221.993 364.618 221.96 364.476C221.872 364.433 221.784 364.389 221.696 364.345C220.739 364.542 217.659 365.119 216.9 365.49C215.437 366.187 214.04 367.037 212.698 367.93C210.443 369.434 208.298 371.134 206.142 372.779C201.742 376.146 197.375 379.556 192.755 382.639C184.758 387.978 176.002 392.173 166.3 393.089C165.321 393.176 164.804 391.988 165.563 391.356C180.677 378.695 197.793 366.546 217.516 362.537C217.318 362.45 217.12 362.362 216.922 362.275C204.701 357.263 191.721 354.31 178.532 353.417C178.246 353.395 177.96 353.395 177.685 353.373C177.597 353.395 177.509 353.417 177.421 353.439C173.307 357.013 170.282 361.491 166.883 365.751C163.517 369.957 159.755 373.814 155.664 377.333C147.326 384.514 137.591 389.94 127.163 393.524C126.327 393.808 125.491 392.664 126.327 392.119C137.228 384.982 146.556 376.472 155.4 366.982C160.789 361.186 166.993 355.269 174.737 353.232C162.538 352.687 150.318 353.384 138.108 353.417C127.317 358.734 117.857 365.958 107.803 372.506C102.985 375.644 97.9694 378.554 92.5795 380.646C88.5865 382.193 82.5806 384.819 78.5437 382.443C77.9167 382.073 78.2357 381.256 78.7307 380.972C95.9894 370.927 113.325 361.36 131.618 353.352C121.366 353.09 111.29 351.913 101.434 349.571C96.9354 351.63 92.0185 353.09 87.3766 354.681C82.5806 356.315 77.7407 357.841 72.8238 359.039C63.0669 361.404 52.8041 362.461 42.9922 359.835C41.8483 359.53 41.8372 358.113 42.9922 357.808C60.669 353.156 78.7307 350.018 96.9574 348.427C92.6455 347.239 88.3665 345.834 84.1426 344.167C83.7576 344.014 83.5706 343.731 83.5046 343.426C83.4056 343.371 83.3066 343.317 83.2076 343.262C75.1118 344.581 65.9929 342.085 58.7 338.849C50.5381 335.221 43.3552 329.849 37.2283 323.432C36.6233 322.789 37.3273 321.808 38.0973 321.906ZM140.308 333.739C133.763 325.992 126.393 319.074 117.824 313.637C117.912 313.822 118 314.007 118.088 314.192C118.154 314.16 118.242 314.16 118.308 314.225C128.01 324.205 137.855 334.099 148.019 343.644C145.258 340.342 142.816 336.703 140.308 333.739ZM152.54 348.296C151.902 347.762 151.286 347.174 150.681 346.574C149.801 345.834 148.943 345.158 148.47 344.7C145.126 341.421 141.804 338.13 138.471 334.84C131.75 328.215 125.073 321.536 118.407 314.857C124.842 328.596 136.216 339.47 149.361 347.097C150.274 347.631 151.198 348.143 152.122 348.656C152.496 348.874 152.881 349.081 153.266 349.288C153.277 349.288 153.277 349.288 153.288 349.298C153.101 348.972 152.859 348.645 152.54 348.296ZM253.045 344.036C251.945 357.895 251.351 372.136 255.751 385.451C256.642 371.787 256.125 358.048 253.023 344.668C252.99 344.526 253.144 344.472 253.243 344.526C253.166 344.363 253.111 344.188 253.045 344.036ZM258.006 365.86C257.61 358.636 256.015 351.597 253.375 344.886C256.554 358.701 256.62 372.506 256.499 386.573C256.884 386.976 257.258 387.401 257.632 387.815C256.664 380.569 258.402 373.171 258.006 365.86ZM238.338 378.641C234.774 378.771 231.221 379.305 227.811 380.34C221.916 382.138 216.614 385.57 211.675 389.297C216.977 386.409 222.378 383.675 228.119 381.735C230.979 380.765 233.916 379.992 236.897 379.502C238.514 379.229 240.472 378.87 242.386 378.728C241.044 378.641 239.691 378.597 238.338 378.641ZM209.728 390.8C209.684 390.833 209.64 390.877 209.596 390.909C222.466 389.526 233.839 378.118 246.863 380.308C246.522 380.014 246.181 379.719 245.84 379.436C232.794 378.75 220.937 384.633 209.728 390.8ZM225.039 345.648C221.19 337.084 215.305 329.642 208.617 323.072C217.043 334.981 224.06 347.62 230 360.848C228.383 355.76 227.195 350.464 225.039 345.648ZM229.769 361.24C227.833 356.773 225.71 352.393 223.456 348.078C218.858 339.285 213.6 330.852 207.847 322.756C211.939 339.307 221.652 353.264 231.562 367.059C231.584 367.091 231.606 367.135 231.639 367.167C231.892 367.309 232.145 367.451 232.398 367.603C231.551 365.457 230.682 363.343 229.769 361.24ZM211.037 364.803C206.131 366.35 201.412 368.431 196.88 370.85C186.859 376.211 177.993 383.37 169.358 390.691C180.798 388.654 190.577 382.149 199.762 375.241C203.711 372.278 207.616 369.052 211.862 366.481C205.504 369.543 199.399 373.084 193.404 376.832C189.235 379.436 185.143 382.16 181.051 384.895C177.96 386.965 174.726 389.972 170.832 390.179C170.645 390.19 170.524 389.961 170.689 389.842C184.263 379.774 198.266 369.586 214.546 364.531C215.811 363.931 217.175 363.3 218.44 362.929C218.385 362.907 218.33 362.875 218.264 362.853C215.811 363.256 213.303 364.084 211.037 364.803ZM212.236 365.631C203.81 368.562 195.934 372.822 188.432 377.704C183.878 380.667 179.467 383.827 175.1 387.041C174.451 387.521 172.229 388.632 171.965 389.351C171.679 390.158 175.683 388 176.156 387.695C178.708 386.05 181.194 384.296 183.713 382.596C192.887 376.407 202.182 370.36 212.236 365.631ZM152.639 372.321C146.512 378.837 139.758 384.699 132.487 389.885C133.224 389.591 133.972 389.308 134.698 388.992C142.717 384.557 149.515 378.02 156.049 371.7C161.24 366.677 166.146 359.987 172.163 355.367C164.43 359.137 158.622 365.958 152.639 372.321ZM166.96 361.491C163.176 365.5 159.348 369.456 155.356 373.269C150.34 378.052 145.115 383.021 139.252 386.911C144.708 384.208 149.867 380.929 154.619 377.061C158.919 373.563 162.813 369.608 166.278 365.304C169.325 361.534 172.031 357.459 175.573 354.114C175.65 354.038 175.738 353.973 175.826 353.896C175.573 353.973 175.342 354.082 175.1 354.169C174.539 354.528 173.989 354.888 173.461 355.291C171.063 357.089 169.006 359.312 166.96 361.491ZM92.3925 349.44C90.0495 349.702 87.7066 349.985 85.3746 350.323C80.9307 350.944 76.5087 351.685 72.1198 352.589C66.1249 353.809 60.185 355.193 54.2781 356.729C60.24 356.01 66.2019 355.226 72.1308 354.191C76.7067 353.395 81.2607 352.513 85.8036 351.543C88.1906 351.031 90.5775 350.497 92.9535 349.93C93.6905 349.756 94.4275 349.571 95.1645 349.386C94.0755 349.396 93.0195 349.375 92.3925 349.44ZM50.9891 357.579C49.8121 357.906 48.6461 358.255 47.4802 358.593C56.071 359.878 64.6399 358.93 73.1538 356.838C80.6447 354.997 87.9376 351.99 95.3844 349.821C80.8097 353.275 65.9379 356.13 50.9891 357.579ZM63.6829 330.22C56.599 326.733 48.7451 325.273 40.9463 324.195C48.3382 328.03 55.3451 332.377 63.2649 335.156C69.4138 337.313 76.1787 338.479 81.8766 341.693C82.0856 341.704 82.2836 341.726 82.4926 341.737C75.9257 338.512 70.2498 333.445 63.6829 330.22ZM93.6135 332.192C99.0914 336.888 104.668 341.366 110.3 345.812C105.372 340.407 100.312 335.134 95.0105 330.089C91.9635 327.191 88.8396 324.358 85.6606 321.59C84.1646 320.294 82.6467 319.008 81.1287 317.744C80.0287 316.829 78.2577 314.813 76.7837 314.029C80.9857 321.166 87.3656 326.82 93.6135 332.192ZM100.763 331.092C97.8594 326.919 94.6255 322.942 90.4785 319.913C86.1666 316.764 81.1837 314.835 76.1897 313.026C76.2667 313.168 76.3547 313.299 76.4317 313.43C78.4557 313.778 81.1947 317.123 82.5916 318.289C86.5736 321.645 90.4565 325.11 94.2295 328.684C99.4544 333.619 104.481 338.762 109.255 344.123C106.076 339.928 103.513 335.036 100.763 331.092ZM197.331 352.654C197.529 352.796 199.74 354.114 199.718 354.202C199.762 354.016 198.222 352.524 198.046 352.327C196.495 350.573 194.944 348.819 193.382 347.065C190.104 343.36 186.815 339.656 183.537 335.951C177.333 328.945 171.206 321.765 163.176 316.775C173.208 329.904 183.559 343.251 197.331 352.654ZM197.122 350.137C193.624 345.387 190.379 340.451 186.793 335.755C180.094 327.006 172.108 318.976 161.746 314.879C161.944 315.14 162.142 315.391 162.34 315.652C162.384 315.652 162.439 315.641 162.483 315.674C169.842 320.163 175.551 326.45 181.227 332.813C187.761 340.146 194.273 347.501 200.851 354.801C200.983 354.833 201.126 354.866 201.258 354.899C199.674 353.57 198.365 351.837 197.122 350.137ZM120.772 359.017C116.207 361.186 111.697 363.441 107.242 365.816C98.2884 370.589 89.3565 375.732 80.9857 381.495C81.1837 381.539 81.3707 381.572 81.5687 381.593C90.6215 376.483 99.7184 371.45 108.804 366.427C113.611 363.768 118.418 361.12 123.225 358.484C124.699 357.677 126.162 356.871 127.636 356.054C125.326 357.024 122.994 357.961 120.772 359.017ZM82.2066 381.648C86.9916 381.866 93.5585 378.434 97.0234 376.712C102.27 374.119 107.176 370.883 112.005 367.603C119.661 362.406 127.306 356.762 135.996 353.406C135.325 353.406 134.665 353.406 133.994 353.406C133.972 353.406 133.95 353.406 133.928 353.406C116.636 362.733 99.4214 372.19 82.2066 381.648ZM60.009 337.335C66.5539 340.157 72.9118 341.039 79.6877 341.541C73.6158 338.893 67.1809 337.368 60.944 334.894C53.9371 332.116 47.0402 328.422 40.7373 324.271C46.3362 329.697 52.7931 334.23 60.009 337.335Z" fill="#B3D8CC"/>
</svg>
