<svg width="275" height="120" viewBox="0 0 275 120" fill="none" xmlns="http://www.w3.org/2000/svg">
<path d="M273.721 13.8716C263.506 15.1664 253.098 16.5501 243.703 20.9676C234.115 25.474 225.784 32.5573 216.875 38.2189C206.801 42.0144 196.482 44.6294 185.946 46.1908C195.547 40.1103 204.84 32.9889 213.299 25.601C221.156 18.7335 228.309 11.4343 232.782 1.91377C233.243 0.936325 232.179 0.123902 231.269 0.403172C219.311 4.10985 209.133 9.45407 201.456 19.4697C197.918 24.0777 194.944 29.0665 191.753 33.9156C188.766 38.4347 185.37 42.573 181.947 46.7366C175.795 47.4983 169.578 47.9553 163.298 48.0568C154.107 48.2219 144.917 47.9172 135.74 47.7522C136.381 47.4221 137.009 47.0794 137.611 46.6859C137.547 46.7493 137.483 46.8128 137.419 46.8636C137.06 47.1936 137.368 47.8283 137.868 47.6252C159.26 38.9425 174.59 22.0974 184.536 1.73605C184.972 0.834772 183.883 -0.396556 182.934 0.123902C173.052 5.54428 164.579 12.8942 157.03 21.1707C149.198 29.7773 143.213 41.1005 133.433 47.7014C125.55 47.5745 117.654 47.5872 109.771 48.133C101.799 48.6788 93.8519 49.8975 86.046 51.7381C105.824 39.7803 120.269 22.3767 133.894 4.02099C134.625 3.04355 133.612 1.88838 132.523 2.23112C120.871 5.89972 111.399 13.4908 103.555 22.6305C99.261 27.632 95.4413 33.027 91.737 38.4728C88.5583 43.1442 85.5333 49.7198 80.6626 53.1218C70.0753 56.0541 59.834 60.1543 50.2465 65.4351C62.9871 49.0978 75.1767 31.6687 79.1245 11.0535C79.304 10.1395 78.0222 9.32713 77.2916 9.99991C68.6525 17.921 60.8466 26.8704 55.4889 37.3303C50.4644 47.1429 48.7596 58.0725 45.1451 68.3928C38.8516 72.2264 32.8658 76.5805 27.3158 81.4423C25.4316 83.0926 23.6115 84.8316 21.8298 86.5961C27.5465 70.2969 26.2263 52.8552 24.7779 35.8324C24.701 34.9057 23.3808 34.8169 23.0347 35.6039C18.9971 44.3882 16.4593 53.7565 15.7927 63.404C15.1262 72.9627 17.1514 82.4452 16.7925 91.9657C14.8314 94.1872 12.9344 96.4467 11.1528 98.8205C6.76914 104.634 0.821777 112.302 0.00145065 119.715C-0.0241846 119.982 0.296256 120.096 0.462884 119.905C5.25667 114.523 7.93555 107.224 12.2166 101.359C16.6259 95.317 21.676 89.7443 27.226 84.7174C27.9438 84.0573 28.7001 83.4353 29.4435 82.8006C46.1192 80.4395 60.0006 96.2817 76.7148 96.1675C77.5095 96.1675 77.6761 95.0377 77.1378 94.6188C69.742 88.7795 61.6926 82.9148 52.5023 80.2618C46.1833 78.4338 39.8514 78.3069 33.5323 79.4113C36.8008 76.8344 40.1846 74.4098 43.6967 72.1629C43.671 72.2137 43.6582 72.2772 43.6326 72.328C43.5813 72.4549 43.7607 72.5818 43.8505 72.4549C44.0171 72.2264 44.1453 71.9852 44.3119 71.7567C44.658 71.5409 44.9912 71.3124 45.3373 71.0966C45.4655 71.1982 45.6578 71.2109 45.7859 71.0459C45.8885 70.9062 46.0038 70.7793 46.1064 70.6396C50.2977 68.0881 54.6301 65.7651 59.065 63.6706C59.2444 63.7467 59.4367 63.6325 59.4751 63.4675C59.5777 63.4167 59.6802 63.3659 59.7827 63.3151C60.8979 63.5436 64.4868 64.2164 65.3712 64.648C67.076 65.4604 68.7038 66.4506 70.2675 67.4915C72.8952 69.2433 75.3946 71.2236 77.9068 73.1404C83.0339 77.0629 88.1225 81.0361 93.5059 84.6285C102.824 90.8486 113.027 95.7359 124.332 96.8022C125.473 96.9037 126.075 95.5201 125.191 94.7838C107.58 80.0333 87.6354 65.8794 64.6534 61.2079C64.8842 61.1064 65.1149 61.0048 65.3456 60.9033C79.5859 55.064 94.7107 51.6239 110.079 50.583C110.412 50.5576 110.746 50.5576 111.066 50.5322C111.169 50.5576 111.271 50.583 111.374 50.6083C116.167 54.772 119.692 59.9893 123.653 64.9527C127.575 69.8526 131.959 74.3463 136.727 78.4465C146.443 86.8119 157.786 93.1336 169.937 97.3099C170.911 97.64 171.885 96.3071 170.911 95.6724C158.209 87.3578 147.34 77.4437 137.034 66.3871C130.754 59.6339 123.525 52.741 114.501 50.3672C128.716 49.7325 142.956 50.5449 157.184 50.583C169.758 56.7777 180.781 65.1939 192.496 72.823C198.11 76.4789 203.955 79.8682 210.236 82.3055C214.889 84.1081 221.887 87.1674 226.591 84.4C227.322 83.9684 226.95 83.0164 226.373 82.6863C206.262 70.9824 186.062 59.837 164.746 50.5068C176.692 50.2021 188.433 48.8312 199.918 46.1019C205.16 48.5011 210.889 50.2021 216.298 52.0555C221.887 53.9596 227.527 55.7368 233.256 57.1331C244.625 59.8877 256.584 61.1191 268.018 58.0598C269.351 57.7043 269.363 56.0541 268.018 55.6987C247.42 50.2783 226.373 46.6224 205.134 44.7691C210.159 43.3854 215.145 41.7479 220.067 39.8057C220.515 39.6279 220.733 39.2979 220.81 38.9425C220.926 38.879 221.041 38.8155 221.156 38.7521C230.59 40.288 241.216 37.3811 249.714 33.6109C259.225 29.3838 267.595 23.1256 274.734 15.6488C275.439 14.8998 274.619 13.7574 273.721 13.8716ZM154.62 27.6574C162.247 18.6319 170.834 10.5711 180.819 4.23679C180.717 4.45259 180.614 4.66839 180.512 4.88419C180.435 4.84611 180.332 4.84611 180.255 4.92227C168.95 16.5501 157.479 28.0763 145.635 39.1964C148.852 35.35 151.698 31.1102 154.62 27.6574ZM140.367 44.6167C141.11 43.9947 141.828 43.3092 142.533 42.6111C143.559 41.7479 144.558 40.9608 145.11 40.4277C149.006 36.6068 152.877 32.7731 156.761 28.9395C164.592 21.2215 172.373 13.44 180.14 5.65853C172.642 21.6658 159.388 34.3345 144.071 43.2204C143.007 43.8424 141.931 44.439 140.854 45.0356C140.418 45.2895 139.97 45.5307 139.521 45.7719C139.508 45.7719 139.508 45.7719 139.495 45.7846C139.713 45.4038 139.995 45.0229 140.367 44.6167ZM23.2526 39.6533C24.5343 55.8002 25.2265 72.3914 20.0995 87.9036C19.0612 71.9852 19.6637 55.978 23.2782 40.3896C23.3167 40.2246 23.1372 40.1611 23.0219 40.2246C23.1116 40.0342 23.1757 39.8311 23.2526 39.6533ZM17.4718 65.0796C17.9333 56.6634 19.7918 48.463 22.8681 40.6435C19.1638 56.7396 19.0869 72.823 19.2279 89.2111C18.7792 89.6808 18.3434 90.1759 17.9076 90.6582C19.0356 82.2167 17.0104 73.5974 17.4718 65.0796ZM40.3897 79.9698C44.5426 80.1221 48.6827 80.7441 52.6562 81.9501C59.5264 84.0446 65.7045 88.0433 71.4596 92.3846C65.2815 89.0207 58.9881 85.8345 52.2973 83.5749C48.9647 82.4452 45.5424 81.5439 42.0688 80.9726C40.1846 80.6553 37.9031 80.2364 35.6728 80.0714C37.2366 79.9698 38.8131 79.919 40.3897 79.9698ZM73.7283 94.1364C73.7796 94.1745 73.8308 94.2253 73.8821 94.2634C58.8855 92.6512 45.6321 79.3605 30.4561 81.912C30.8534 81.5693 31.2508 81.2265 31.6481 80.8965C46.8498 80.0967 60.6672 86.9516 73.7283 94.1364ZM55.8862 41.5321C60.3724 31.5545 67.2298 22.8844 75.0229 15.2299C65.2046 29.1045 57.027 43.8297 50.1055 59.2403C51.9896 53.3122 53.3739 47.1429 55.8862 41.5321ZM50.3746 59.6973C52.6305 54.4927 55.1043 49.3897 57.7319 44.3628C63.0897 34.1187 69.2165 24.2935 75.9201 14.8618C71.152 34.1441 59.834 50.4052 48.2854 66.476C48.2597 66.5141 48.2341 66.5648 48.1956 66.6029C47.9008 66.7679 47.606 66.933 47.3112 67.1107C48.2982 64.6099 49.3108 62.1473 50.3746 59.6973ZM72.203 63.8483C77.9197 65.6509 83.4184 68.0754 88.6992 70.8935C100.376 77.139 110.707 85.479 120.769 94.0095C107.439 91.6357 96.0437 84.0573 85.341 76.0092C80.7395 72.5564 76.1893 68.799 71.2417 65.8032C78.6503 69.3702 85.764 73.4958 92.7496 77.8626C97.6075 80.8965 102.376 84.07 107.144 87.2562C110.746 89.6681 114.514 93.1717 119.051 93.4129C119.269 93.4256 119.41 93.159 119.218 93.0193C103.401 81.29 87.0842 69.421 68.1142 63.5309C66.6402 62.8328 65.0508 62.0965 63.5768 61.6649C63.6408 61.6395 63.7049 61.6014 63.7818 61.5761C66.6402 62.0457 69.5626 63.0105 72.203 63.8483ZM70.8059 64.813C80.6242 68.2278 89.8016 73.1912 98.5432 78.8781C103.85 82.3309 108.99 86.0122 114.078 89.757C114.834 90.3155 117.424 91.6103 117.731 92.4481C118.064 93.3875 113.399 90.874 112.848 90.5186C109.874 88.6018 106.977 86.558 104.042 84.5778C93.352 77.3675 82.5212 70.3223 70.8059 64.813ZM140.252 72.6072C147.391 80.1983 155.261 87.0277 163.733 93.0701C162.875 92.7274 162.003 92.3973 161.157 92.0292C151.813 86.8627 143.892 79.2462 136.278 71.8837C130.228 66.0317 124.512 58.2375 117.5 52.8552C126.511 57.2474 133.279 65.1939 140.252 72.6072ZM123.563 59.9893C127.972 64.6607 132.433 69.2687 137.086 73.7116C142.931 79.2843 149.019 85.0728 155.851 89.6046C149.493 86.4565 143.482 82.6356 137.944 78.1292C132.933 74.0544 128.395 69.4464 124.358 64.4322C120.807 60.0401 117.654 55.2925 113.527 51.3954C113.437 51.3065 113.335 51.2304 113.232 51.1415C113.527 51.2304 113.796 51.3573 114.078 51.4589C114.732 51.8778 115.373 52.2967 115.988 52.7663C118.782 54.8609 121.179 57.4505 123.563 59.9893ZM210.454 45.9496C213.184 46.2543 215.914 46.5843 218.631 46.9778C223.81 47.7014 228.962 48.5646 234.076 49.6182C241.062 51.0399 247.984 52.6521 254.867 54.442C247.92 53.6042 240.972 52.6902 234.064 51.4842C228.732 50.5576 223.425 49.5293 218.131 48.3996C215.35 47.803 212.569 47.1809 209.8 46.5208C208.941 46.3177 208.082 46.1019 207.224 45.8861C208.493 45.8988 209.723 45.8734 210.454 45.9496ZM258.699 55.4321C260.071 55.8129 261.429 56.2191 262.788 56.6127C252.777 58.1106 242.792 57.0062 232.872 54.5689C224.143 52.4236 215.645 48.92 206.967 46.3939C223.951 50.4179 241.28 53.7438 258.699 55.4321ZM243.908 23.5572C252.162 19.4951 261.314 17.7941 270.402 16.5374C261.788 21.0057 253.623 26.0706 244.395 29.3076C237.23 31.8211 229.347 33.1793 222.707 36.9241C222.464 36.9368 222.233 36.9622 221.99 36.9749C229.642 33.2174 236.255 27.3147 243.908 23.5572ZM209.031 25.8548C202.648 31.326 196.149 36.5433 189.587 41.7225C195.329 35.4262 201.225 29.2823 207.403 23.4049C210.954 20.0283 214.594 16.7278 218.298 13.5035C220.041 11.9929 221.81 10.495 223.579 9.02247C224.861 7.95616 226.924 5.60775 228.642 4.69378C223.746 13.0084 216.311 19.5967 209.031 25.8548ZM200.699 24.5727C204.083 19.7109 207.852 15.0776 212.684 11.5486C217.708 7.88 223.515 5.63314 229.334 3.52592C229.244 3.69094 229.142 3.84327 229.052 3.9956C226.694 4.40181 223.502 8.2989 221.874 9.65717C217.234 13.567 212.71 17.6037 208.313 21.7673C202.225 27.5178 196.367 33.5094 190.804 39.7549C194.509 34.8677 197.495 29.168 200.699 24.5727ZM88.1737 49.6944C87.943 49.8594 85.3667 51.3954 85.3923 51.4969C85.341 51.2811 87.1355 49.542 87.3406 49.3135C89.1479 47.2698 90.9551 45.226 92.7752 43.1823C96.5949 38.8663 100.427 34.5503 104.247 30.2343C111.476 22.072 118.616 13.7066 127.972 7.89269C116.283 23.1891 104.221 38.7394 88.1737 49.6944ZM88.4173 46.762C92.4933 41.2274 96.2745 35.477 100.453 30.0058C108.259 19.8125 117.564 10.4569 129.639 5.68392C129.408 5.98858 129.177 6.28054 128.947 6.5852C128.895 6.5852 128.831 6.57251 128.78 6.61059C120.205 11.8406 113.553 19.1651 106.939 26.5784C99.3251 35.1215 91.737 43.6901 84.0721 52.1951C83.9183 52.2332 83.7517 52.2713 83.5978 52.3094C85.4436 50.7607 86.9689 48.7423 88.4173 46.762ZM177.384 57.1077C182.704 59.6339 187.959 62.2615 193.15 65.0288C203.583 70.5889 213.991 76.5805 223.746 83.2957C223.515 83.3464 223.297 83.3845 223.066 83.4099C212.517 77.4564 201.917 71.5917 191.33 65.7397C185.729 62.6424 180.127 59.5577 174.526 56.4857C172.808 55.5464 171.104 54.607 169.386 53.6549C172.078 54.7847 174.795 55.8764 177.384 57.1077ZM222.323 83.4734C216.747 83.7272 209.095 79.7286 205.057 77.723C198.943 74.7018 193.227 70.9316 187.6 67.1107C178.679 61.0556 169.771 54.48 159.645 50.5703C160.427 50.5703 161.196 50.5703 161.977 50.5703C162.003 50.5703 162.029 50.5703 162.054 50.5703C182.204 61.4364 202.263 72.4549 222.323 83.4734ZM248.189 31.8465C240.562 35.1342 233.154 36.1625 225.258 36.7464C232.333 33.6617 239.832 31.8845 247.099 29.003C255.264 25.766 263.301 21.4627 270.645 16.6262C264.121 22.9479 256.597 28.2286 248.189 31.8465Z" fill="#3C3C3B"/>
</svg>
